<?xml version="1.0" encoding="utf-8"?>
<!-- Generator: Adobe Illustrator 17.0.0, SVG Export Plug-In . SVG Version: 6.00 Build 0)  -->
<!DOCTYPE svg PUBLIC "-//W3C//DTD SVG 1.1//EN" "http://www.w3.org/Graphics/SVG/1.1/DTD/svg11.dtd">
<svg version="1.1" id="Layer_1" xmlns="http://www.w3.org/2000/svg" xmlns:xlink="http://www.w3.org/1999/xlink" x="0px" y="0px"
	 width="46px" height="46px" viewBox="0 0 46 46" enable-background="new 0 0 46 46" xml:space="preserve">
<g>
	<path fill="#7F47DD" d="M46,36.566C46,41.755,41.755,46,36.566,46H9.434C4.245,46,0,41.755,0,36.566V9.434C0,4.245,4.245,0,9.434,0
		h27.133C41.755,0,46,4.245,46,9.434V36.566z"/>
	<g>
		<path fill="#FFFFFF" d="M13.28,32.488h3.98v-3.98h-3.98V32.488z M18.144,32.488h4.422v-3.98h-4.422V32.488z M13.28,27.624h3.98
			v-4.422h-3.98V27.624z M18.144,27.624h4.422v-4.422h-4.422V27.624z M13.28,22.317h3.98v-3.98h-3.98V22.317z M23.451,32.488h4.422
			v-3.98h-4.422V32.488z M18.144,22.317h4.422v-3.98h-4.422V22.317z M28.758,32.488h3.98v-3.98h-3.98V32.488z M23.451,27.624h4.422
			v-4.422h-4.422V27.624z M18.586,15.684v-3.98c0-0.12-0.044-0.223-0.132-0.311c-0.088-0.088-0.191-0.132-0.311-0.132h-0.885
			c-0.12,0-0.223,0.044-0.311,0.132c-0.088,0.088-0.132,0.191-0.132,0.311v3.98c0,0.12,0.044,0.223,0.132,0.311
			c0.088,0.088,0.191,0.132,0.311,0.132h0.885c0.12,0,0.223-0.044,0.311-0.132C18.543,15.907,18.586,15.803,18.586,15.684z
			 M28.758,27.624h3.98v-4.422h-3.98V27.624z M23.451,22.317h4.422v-3.98h-4.422V22.317z M28.758,22.317h3.98v-3.98h-3.98V22.317z
			 M29.2,15.684v-3.98c0-0.12-0.044-0.223-0.132-0.311c-0.088-0.088-0.191-0.132-0.311-0.132h-0.885
			c-0.12,0-0.223,0.044-0.311,0.132c-0.088,0.088-0.132,0.191-0.132,0.311v3.98c0,0.12,0.044,0.223,0.132,0.311
			s0.191,0.132,0.311,0.132h0.885c0.12,0,0.223-0.044,0.311-0.132S29.2,15.803,29.2,15.684z M34.506,14.799v17.689
			c0,0.479-0.175,0.894-0.525,1.244c-0.35,0.35-0.765,0.525-1.244,0.525H13.279c-0.479,0-0.894-0.175-1.244-0.525
			c-0.35-0.35-0.525-0.765-0.525-1.244V14.799c0-0.479,0.175-0.894,0.525-1.244c0.35-0.35,0.765-0.525,1.244-0.525h1.769v-1.326
			c0-0.608,0.216-1.129,0.649-1.562c0.433-0.433,0.953-0.649,1.562-0.649h0.885c0.608,0,1.129,0.216,1.562,0.649
			c0.433,0.433,0.649,0.953,0.649,1.562v1.326h5.307v-1.326c0-0.608,0.216-1.129,0.649-1.562c0.433-0.433,0.953-0.649,1.562-0.649
			h0.885c0.608,0,1.129,0.216,1.562,0.649c0.433,0.433,0.649,0.953,0.649,1.562v1.326h1.769c0.479,0,0.894,0.175,1.244,0.525
			C34.331,13.906,34.506,14.32,34.506,14.799z"/>
	</g>
</g>
</svg>
