<?xml version="1.0" encoding="utf-8"?>
<!-- Generator: Adobe Illustrator 17.0.0, SVG Export Plug-In . SVG Version: 6.00 Build 0)  -->
<!DOCTYPE svg PUBLIC "-//W3C//DTD SVG 1.1//EN" "http://www.w3.org/Graphics/SVG/1.1/DTD/svg11.dtd">
<svg version="1.1" id="Layer_1" xmlns="http://www.w3.org/2000/svg" xmlns:xlink="http://www.w3.org/1999/xlink" x="0px" y="0px"
	 width="70px" height="60.249px" viewBox="0 0 70 60.249" enable-background="new 0 0 70 60.249" xml:space="preserve">
<g>
	<path fill="#FFFFFF" d="M17.5,35C7.836,35,0,27.164,0,17.5S7.836,0,17.5,0S35,7.836,35,17.5S27.164,35,17.5,35z M26.261,12.243
		l-3.507-3.504L17.5,13.996l-5.257-5.257l-3.504,3.504l5.257,5.257l-5.257,5.254l3.504,3.507l5.257-5.257l5.254,5.257l3.507-3.507
		L21.004,17.5L26.261,12.243z"/>
</g>
<g>
	<path fill="#FFFFFF" d="M52.5,0C42.835,0,35,7.835,35,17.5C35,27.165,42.835,35,52.5,35C62.165,35,70,27.165,70,17.5
		C70,7.835,62.165,0,52.5,0z M52.227,6.817c1.435,0,2.252,0.767,2.252,2.177s-0.816,2.227-2.252,2.227
		c-1.41,0-2.227-0.817-2.227-2.227S50.816,6.817,52.227,6.817z M56.087,26.093h-7.052v-1.955l1.262-0.173
		c0.346-0.049,0.396-0.124,0.396-0.495v-7.275c0-0.272-0.075-0.445-0.322-0.52l-1.337-0.47l0.272-2.004h5.122V23.47
		c0,0.396,0.026,0.445,0.396,0.495l1.262,0.173V26.093z"/>
</g>
<polygon fill="#FFFFFF" points="35,60.249 0,60.25 17.501,42.75 "/>
</svg>
