<?xml version="1.0" encoding="utf-8"?>
<!-- Generator: Adobe Illustrator 17.0.0, SVG Export Plug-In . SVG Version: 6.00 Build 0)  -->
<!DOCTYPE svg PUBLIC "-//W3C//DTD SVG 1.1//EN" "http://www.w3.org/Graphics/SVG/1.1/DTD/svg11.dtd">
<svg version="1.1" id="Layer_1" xmlns="http://www.w3.org/2000/svg" xmlns:xlink="http://www.w3.org/1999/xlink" x="0px" y="0px"
	 width="46px" height="46px" viewBox="0 0 46 46" enable-background="new 0 0 46 46" xml:space="preserve">
<g>
	<path fill="#FF3301" d="M46,36.566C46,41.755,41.755,46,36.566,46H9.434C4.245,46,0,41.755,0,36.566V9.434C0,4.245,4.245,0,9.434,0
		h27.133C41.755,0,46,4.245,46,9.434V36.566z"/>
	<path fill="#FFFFFF" stroke="#FFFFFF" stroke-width="1.5002" stroke-miterlimit="10" d="M32.145,8.412h-13.82
		c-1.689,0-3.04,1.382-3.04,3.071v4.607h3.04v-4.607h13.82v21.498h-13.82V29.91h-3.04v3.071c0,1.689,1.351,3.071,3.04,3.071h13.82
		c1.689,0,3.071-1.382,3.071-3.071l0-21.498C35.216,9.794,33.834,8.412,32.145,8.412z"/>
	<polygon fill="#FFFFFF" points="21.396,28.989 27.538,23 21.396,17.011 21.396,20.697 7.576,20.697 7.576,25.303 21.396,25.303 	
		"/>
</g>
</svg>
