<?xml version="1.0" encoding="utf-8"?>
<!-- Generator: Adobe Illustrator 17.0.0, SVG Export Plug-In . SVG Version: 6.00 Build 0)  -->
<!DOCTYPE svg PUBLIC "-//W3C//DTD SVG 1.1//EN" "http://www.w3.org/Graphics/SVG/1.1/DTD/svg11.dtd">
<svg version="1.1" id="Layer_1" xmlns="http://www.w3.org/2000/svg" xmlns:xlink="http://www.w3.org/1999/xlink" x="0px" y="0px"
	 width="46px" height="46px" viewBox="0 0 46 46" enable-background="new 0 0 46 46" xml:space="preserve">
<g>
	<path fill="#E02B27" d="M46,36.566C46,41.755,41.755,46,36.566,46H9.434C4.245,46,0,41.755,0,36.566V9.434C0,4.245,4.245,0,9.434,0
		h27.133C41.755,0,46,4.245,46,9.434V36.566z"/>
	<g>
		<path fill="#FFFFFF" d="M30.58,23.357c0-0.463-0.188-0.8-0.563-1.012l-9.596-5.997c-0.388-0.25-0.794-0.262-1.219-0.038
			c-0.412,0.225-0.618,0.574-0.618,1.05v11.996c0,0.475,0.206,0.825,0.618,1.05c0.2,0.1,0.394,0.15,0.581,0.15
			c0.25,0,0.462-0.063,0.637-0.188l9.596-5.997c0.375-0.213,0.563-0.55,0.563-1.012V23.357z M40.177,23.357
			c0,1.199-0.006,2.137-0.019,2.812s-0.066,1.528-0.16,2.559c-0.094,1.031-0.234,1.952-0.422,2.765
			c-0.2,0.912-0.631,1.681-1.293,2.305c-0.662,0.624-1.437,0.987-2.324,1.087c-2.774,0.312-6.966,0.468-12.576,0.468
			s-9.802-0.156-12.576-0.468c-0.887-0.1-1.665-0.463-2.333-1.087c-0.668-0.625-1.102-1.393-1.303-2.305
			c-0.175-0.812-0.309-1.734-0.403-2.765c-0.094-1.031-0.147-1.884-0.16-2.559c-0.013-0.675-0.019-1.613-0.019-2.812
			c0-1.199,0.006-2.137,0.019-2.812s0.066-1.528,0.16-2.559s0.234-1.952,0.422-2.765c0.2-0.912,0.631-1.681,1.293-2.305
			s1.437-0.987,2.324-1.087c2.774-0.312,6.966-0.468,12.576-0.468s9.802,0.156,12.576,0.468c0.887,0.1,1.665,0.463,2.333,1.087
			c0.668,0.625,1.102,1.393,1.303,2.305c0.175,0.812,0.309,1.734,0.403,2.765s0.147,1.884,0.16,2.559
			C40.17,21.221,40.177,22.158,40.177,23.357z"/>
	</g>
</g>
</svg>
