<?xml version="1.0" encoding="utf-8"?>
<!-- Generator: Adobe Illustrator 17.0.0, SVG Export Plug-In . SVG Version: 6.00 Build 0)  -->
<!DOCTYPE svg PUBLIC "-//W3C//DTD SVG 1.1//EN" "http://www.w3.org/Graphics/SVG/1.1/DTD/svg11.dtd">
<svg version="1.1" id="Layer_1" xmlns="http://www.w3.org/2000/svg" xmlns:xlink="http://www.w3.org/1999/xlink" x="0px" y="0px"
	 width="46px" height="46px" viewBox="0 0 46 46" enable-background="new 0 0 46 46" xml:space="preserve">
<g>
	<path fill="#47DC00" d="M46,36.566C46,41.755,41.755,46,36.566,46H9.434C4.245,46,0,41.755,0,36.566V9.434C0,4.245,4.245,0,9.434,0
		h27.133C41.755,0,46,4.245,46,9.434V36.566z"/>
	<g>
		<path fill="#FFFFFF" d="M22.972,9.162c-4.955,0-8.974,4.018-8.974,8.974c0,0.616,0.063,1.217,0.181,1.797l1.554,3.467
			l7.238,14.478L30.211,23.4l1.552-3.467c0.12-0.58,0.183-1.181,0.183-1.797C31.946,13.18,27.929,9.162,22.972,9.162z
			 M22.972,21.725c-1.981,0-3.59-1.606-3.59-3.59s1.608-3.59,3.59-3.59s3.59,1.608,3.59,3.59S24.954,21.725,22.972,21.725z"/>
	</g>
</g>
</svg>
