<?xml version="1.0" encoding="utf-8"?>
<!-- Generator: Adobe Illustrator 17.0.0, SVG Export Plug-In . SVG Version: 6.00 Build 0)  -->
<!DOCTYPE svg PUBLIC "-//W3C//DTD SVG 1.1//EN" "http://www.w3.org/Graphics/SVG/1.1/DTD/svg11.dtd">
<svg version="1.1" id="Layer_1" xmlns="http://www.w3.org/2000/svg" xmlns:xlink="http://www.w3.org/1999/xlink" x="0px" y="0px"
	 width="46px" height="46px" viewBox="0 0 46 46" enable-background="new 0 0 46 46" xml:space="preserve">
<g>
	<path fill="#0197D5" d="M46,36.566C46,41.755,41.755,46,36.566,46H9.434C4.245,46,0,41.755,0,36.566V9.434C0,4.245,4.245,0,9.434,0
		h27.133C41.755,0,46,4.245,46,9.434V36.566z"/>
	<g>
		<path fill="#FFFFFF" d="M34.639,15.835c0.398,0.567,0.487,1.209,0.268,1.925l-4.104,13.521c-0.189,0.637-0.569,1.172-1.142,1.605
			s-1.182,0.649-1.829,0.649H14.059c-0.766,0-1.505-0.266-2.216-0.798c-0.711-0.532-1.206-1.186-1.485-1.962
			c-0.239-0.666-0.249-1.298-0.03-1.895c0-0.04,0.015-0.174,0.045-0.403c0.03-0.229,0.05-0.413,0.059-0.552
			c0.01-0.08-0.005-0.187-0.045-0.321c-0.04-0.134-0.055-0.231-0.045-0.291c0.02-0.109,0.06-0.214,0.12-0.313
			c0.06-0.1,0.142-0.217,0.247-0.351c0.105-0.134,0.187-0.251,0.247-0.351c0.229-0.378,0.453-0.833,0.672-1.366
			s0.368-0.987,0.448-1.366c0.03-0.1,0.033-0.249,0.008-0.448c-0.025-0.199-0.028-0.338-0.008-0.418
			c0.03-0.109,0.115-0.248,0.254-0.418c0.139-0.169,0.224-0.284,0.254-0.343c0.209-0.358,0.418-0.816,0.627-1.373
			c0.209-0.557,0.333-1.005,0.373-1.343c0.01-0.09-0.003-0.249-0.038-0.477c-0.035-0.228-0.033-0.368,0.008-0.418
			c0.04-0.129,0.149-0.281,0.328-0.455s0.289-0.286,0.328-0.336c0.189-0.259,0.4-0.679,0.634-1.261
			c0.234-0.582,0.371-1.062,0.41-1.44c0.01-0.08-0.005-0.206-0.045-0.38c-0.04-0.174-0.05-0.306-0.03-0.395
			c0.02-0.08,0.065-0.169,0.135-0.268c0.07-0.099,0.159-0.214,0.268-0.343s0.194-0.234,0.254-0.313
			c0.08-0.119,0.162-0.271,0.247-0.455c0.085-0.184,0.159-0.359,0.224-0.522c0.065-0.164,0.144-0.343,0.239-0.537
			c0.095-0.194,0.192-0.353,0.291-0.477c0.099-0.124,0.231-0.241,0.395-0.351c0.164-0.11,0.343-0.167,0.537-0.171
			c0.194-0.004,0.43,0.023,0.709,0.082l-0.015,0.045c0.378-0.09,0.632-0.135,0.761-0.135h11.356c0.736,0,1.303,0.279,1.701,0.836
			c0.398,0.557,0.488,1.204,0.268,1.94L28.46,26.909c-0.358,1.184-0.714,1.947-1.067,2.291s-0.993,0.515-1.918,0.515H12.506
			c-0.269,0-0.458,0.075-0.567,0.224c-0.109,0.159-0.114,0.373-0.015,0.642c0.239,0.696,0.955,1.045,2.149,1.045h13.774
			c0.289,0,0.567-0.077,0.836-0.231c0.269-0.154,0.443-0.361,0.522-0.619l4.477-14.729c0.07-0.219,0.094-0.503,0.074-0.851
			c0.378,0.149,0.672,0.363,0.881,0.642L34.639,15.835z M18.761,15.864c-0.04,0.129-0.03,0.241,0.03,0.336
			c0.06,0.095,0.159,0.142,0.298,0.142h9.073c0.129,0,0.256-0.047,0.38-0.142c0.124-0.095,0.206-0.207,0.247-0.336l0.313-0.955
			c0.04-0.129,0.03-0.241-0.03-0.336s-0.159-0.142-0.298-0.142h-9.073c-0.129,0-0.256,0.047-0.38,0.142
			c-0.124,0.095-0.206,0.207-0.247,0.336L18.761,15.864z M17.522,19.685c-0.04,0.129-0.03,0.241,0.03,0.336s0.159,0.142,0.298,0.142
			h9.073c0.129,0,0.256-0.047,0.38-0.142c0.124-0.095,0.206-0.207,0.247-0.336l0.313-0.955c0.04-0.129,0.03-0.241-0.03-0.336
			c-0.06-0.095-0.159-0.142-0.298-0.142h-9.073c-0.129,0-0.256,0.047-0.38,0.142c-0.124,0.095-0.206,0.207-0.247,0.336
			L17.522,19.685z"/>
	</g>
</g>
</svg>
