<?xml version="1.0" encoding="utf-8"?>
<!-- Generator: Adobe Illustrator 17.0.0, SVG Export Plug-In . SVG Version: 6.00 Build 0)  -->
<!DOCTYPE svg PUBLIC "-//W3C//DTD SVG 1.1//EN" "http://www.w3.org/Graphics/SVG/1.1/DTD/svg11.dtd">
<svg version="1.1" id="Layer_1" xmlns="http://www.w3.org/2000/svg" xmlns:xlink="http://www.w3.org/1999/xlink" x="0px" y="0px"
	 width="46px" height="46px" viewBox="0 0 46 46" enable-background="new 0 0 46 46" xml:space="preserve">
<path fill="#4D69A2" d="M46,36.566C46,41.755,41.755,46,36.566,46H9.434C4.245,46,0,41.755,0,36.566V9.434C0,4.245,4.245,0,9.434,0
	h27.133C41.755,0,46,4.245,46,9.434V36.566z"/>
<g>
	<path fill="#FFFFFF" d="M26.268,17.929h4.589L30.322,23h-4.054v14.714h-6.089V23h-3.036V17.93h3.036v-3.054
		c0-2.167,0.512-3.807,1.536-4.92c1.024-1.113,2.709-1.67,5.054-1.67h4.054v5.071h-2.536c-0.464,0-0.836,0.039-1.116,0.116
		c-0.28,0.077-0.482,0.217-0.607,0.42c-0.125,0.203-0.205,0.408-0.241,0.616c-0.036,0.208-0.054,0.503-0.054,0.884V17.929
		L26.268,17.929z"/>
</g>
</svg>
