<?xml version="1.0" encoding="utf-8"?>
<!-- Generator: Adobe Illustrator 17.0.0, SVG Export Plug-In . SVG Version: 6.00 Build 0)  -->
<!DOCTYPE svg PUBLIC "-//W3C//DTD SVG 1.1//EN" "http://www.w3.org/Graphics/SVG/1.1/DTD/svg11.dtd">
<svg version="1.1" id="Layer_1" xmlns="http://www.w3.org/2000/svg" xmlns:xlink="http://www.w3.org/1999/xlink" x="0px" y="0px"
	 width="46px" height="46px" viewBox="0 0 46 46" enable-background="new 0 0 46 46" xml:space="preserve">
<g>
	<path fill="#4C7CFF" d="M46,36.566C46,41.755,41.755,46,36.566,46H9.434C4.245,46,0,41.755,0,36.566V9.434C0,4.245,4.245,0,9.434,0
		h27.133C41.755,0,46,4.245,46,9.434V36.566z"/>
	<g>
		<path fill="#FFFFFF" d="M35.806,11.858H10.89c-0.982,0-1.78,0.796-1.78,1.78v17.797c0,0.983,0.797,1.78,1.78,1.78h24.915
			c0.982,0,1.78-0.796,1.78-1.78V13.638C37.585,12.654,36.788,11.858,35.806,11.858z M32.246,15.417l-8.898,7.119l-8.898-7.119
			H32.246z M34.026,29.655H12.67V17.197l10.678,8.898l10.678-8.898V29.655z"/>
	</g>
</g>
</svg>
