<?xml version="1.0" encoding="utf-8"?>
<!-- Generator: Adobe Illustrator 17.0.0, SVG Export Plug-In . SVG Version: 6.00 Build 0)  -->
<!DOCTYPE svg PUBLIC "-//W3C//DTD SVG 1.1//EN" "http://www.w3.org/Graphics/SVG/1.1/DTD/svg11.dtd">
<svg version="1.1" id="Layer_1" xmlns="http://www.w3.org/2000/svg" xmlns:xlink="http://www.w3.org/1999/xlink" x="0px" y="0px"
	 width="46px" height="46px" viewBox="0 0 46 46" enable-background="new 0 0 46 46" xml:space="preserve">
<path fill="#00ACED" d="M46,36.566C46,41.755,41.755,46,36.566,46H9.434C4.245,46,0,41.755,0,36.566V9.434C0,4.245,4.245,0,9.434,0
	h27.133C41.755,0,46,4.245,46,9.434V36.566z"/>
<g>
	<path fill="#FFFFFF" d="M38.072,13.822c-0.797,1.167-1.762,2.161-2.893,2.982c0.012,0.167,0.018,0.417,0.018,0.75
		c0,1.547-0.226,3.092-0.679,4.634c-0.453,1.542-1.14,3.021-2.063,4.438c-0.923,1.417-2.021,2.67-3.295,3.759
		c-1.274,1.089-2.81,1.958-4.607,2.607s-3.72,0.973-5.768,0.973c-3.226,0-6.178-0.863-8.857-2.589
		c0.417,0.047,0.881,0.071,1.393,0.071c2.679,0,5.066-0.821,7.161-2.464c-1.25-0.024-2.369-0.408-3.357-1.152
		s-1.667-1.693-2.036-2.848c0.393,0.059,0.756,0.089,1.089,0.089c0.512,0,1.018-0.065,1.518-0.196
		c-1.333-0.274-2.438-0.938-3.313-1.991s-1.313-2.277-1.313-3.67v-0.071c0.809,0.453,1.678,0.697,2.607,0.732
		c-0.786-0.524-1.411-1.209-1.875-2.054s-0.696-1.762-0.696-2.75c0-1.047,0.262-2.018,0.786-2.911
		c1.441,1.774,3.194,3.194,5.259,4.259s4.277,1.658,6.634,1.777c-0.095-0.453-0.143-0.893-0.143-1.321
		c0-1.595,0.563-2.955,1.688-4.08s2.485-1.687,4.08-1.688c1.667,0,3.071,0.607,4.214,1.821c1.297-0.25,2.518-0.714,3.661-1.393
		c-0.441,1.369-1.286,2.429-2.536,3.179c1.107-0.119,2.214-0.417,3.321-0.893L38.072,13.822z"/>
</g>
</svg>
