<?xml version="1.0" encoding="utf-8"?>
<!-- Generator: Adobe Illustrator 17.0.0, SVG Export Plug-In . SVG Version: 6.00 Build 0)  -->
<!DOCTYPE svg PUBLIC "-//W3C//DTD SVG 1.1//EN" "http://www.w3.org/Graphics/SVG/1.1/DTD/svg11.dtd">
<svg version="1.1" id="Layer_1" xmlns="http://www.w3.org/2000/svg" xmlns:xlink="http://www.w3.org/1999/xlink" x="0px" y="0px"
	 width="46px" height="46px" viewBox="0 0 46 46" enable-background="new 0 0 46 46" xml:space="preserve">
<path fill="#916150" d="M46,36.566C46,41.755,41.755,46,36.566,46H9.434C4.245,46,0,41.755,0,36.566V9.434C0,4.245,4.245,0,9.434,0
	h27.133C41.755,0,46,4.245,46,9.434V36.566z"/>
<g>
	<path fill="#FFFFFF" d="M31.32,23c0,4.595-3.726,8.32-8.32,8.32c-4.595,0-8.32-3.725-8.32-8.32c0-0.547,0.054-1.082,0.157-1.6H9.24
		v11.059c0,2.374,1.923,4.301,4.301,4.301h18.918c2.374,0,4.301-1.925,4.301-4.301V21.4h-5.595C31.266,21.918,31.32,22.453,31.32,23
		z M32.459,9.24H13.541c-2.376,0-4.301,1.926-4.301,4.301V18.2h6.966c1.506-2.128,3.988-3.52,6.794-3.52s5.288,1.392,6.794,3.52
		h6.966v-4.659C36.76,11.166,34.834,9.24,32.459,9.24z M34.563,14.552c0,0.424-0.346,0.768-0.768,0.768h-2.302
		c-0.422,0-0.768-0.346-0.768-0.768v-2.304c0-0.424,0.347-0.768,0.768-0.768h2.302c0.424,0,0.768,0.346,0.768,0.768V14.552z
		 M28.12,23c0-2.829-2.293-5.12-5.12-5.12s-5.12,2.291-5.12,5.12s2.293,5.12,5.12,5.12S28.12,25.829,28.12,23z"/>
</g>
</svg>
